<svg width="104" height="36" viewBox="0 0 104 36" fill="none" xmlns="http://www.w3.org/2000/svg">
<path d="M38.4093 31.625L35.9396 4.28125H65.5767L63.1069 31.625L50.7581 34.9062L38.4093 31.625Z" fill="#1172B8"/>
<path d="M63.1068 6.46875H50.7581V33.2656L60.6371 30.5312L63.1068 6.46875Z" fill="#33AADD"/>
<path d="M55.0801 20.1406H42.7313L42.1139 16.3125L51.9929 13.5781H42.1139L41.4965 10.2969H60.6371L60.0196 14.125L51.9929 16.8594H59.4022L58.1673 27.25L50.7581 29.4375L43.3488 27.25L42.7313 21.7812H46.436L47.0534 24.5156L50.7581 25.6094L54.4627 24.5156L55.0801 20.1406Z" fill="white"/>
<path d="M6.5625 31.625L4.375 4.28125H30.625L28.4375 31.625L17.5 34.9062L6.5625 31.625Z" fill="#E44D26"/>
<path d="M28.4375 6.46875H17.5V33.2656L26.25 30.5312L28.4375 6.46875Z" fill="#F16529"/>
<path d="M10.3906 20.1406L9.29688 9.75H26.25L25.7031 13.0312H12.5781L13.125 16.8594H25.1562L24.0625 27.25L17.5 29.4375L10.9375 27.25L10.3906 21.7812H13.6719L14.2188 24.5156L17.5 25.6094L20.7812 24.5156L21.3281 20.1406H10.3906Z" fill="white"/>
<rect x="71.1875" y="2.1875" width="30.625" height="30.625" fill="#FFCA28"/>
<path d="M89.7812 27.6584L92.0361 26.1664C92.2127 26.7215 93.3317 28.04 94.7452 28.04C96.1587 28.04 96.8149 27.268 96.8149 26.7562C96.8149 25.3615 95.3716 24.8697 94.6784 24.6335C94.5654 24.595 94.4723 24.5633 94.4087 24.5356C94.376 24.5214 94.3267 24.5025 94.2633 24.4783C93.4923 24.1838 90.6478 23.097 90.6478 19.9469C90.6478 16.4771 93.9964 16.0781 94.7536 16.0781C95.249 16.0781 97.631 16.1388 98.8173 18.3682L96.6298 19.8948C96.1502 18.9233 95.3535 18.6024 94.863 18.6024C93.6514 18.6024 93.399 19.4906 93.399 19.8948C93.399 21.0293 94.7153 21.5378 95.8268 21.9671C96.1176 22.0794 96.3943 22.1863 96.6298 22.2976C97.8413 22.8701 99.625 23.807 99.625 26.7562C99.625 28.2334 98.386 30.625 95.2668 30.625C91.0769 30.625 89.9663 28.1094 89.7812 27.6584Z" fill="#3E3E3E"/>
<path d="M78.8438 27.9547L81.1939 26.4634C81.378 27.0183 82.0936 28.0414 83.1318 28.0414C84.1701 28.0414 84.7015 26.9749 84.7015 26.4634V16.4063H87.5918V26.4634C87.6385 27.8506 86.8692 30.625 83.4738 30.625C80.352 30.625 79.0542 28.7696 78.8438 27.9547Z" fill="#3E3E3E"/>
</svg>
