<svg width="50" height="50" viewBox="0 0 50 50" fill="none" xmlns="http://www.w3.org/2000/svg">
<path fill-rule="evenodd" clip-rule="evenodd" d="M42.3548 4.18749C39.1182 2.23125 35.6575 0.809536 32.0394 0C31.595 1.0378 31.0759 2.43366 30.718 3.54406C26.8719 2.79685 23.0611 2.79685 19.2857 3.54406C18.9279 2.43366 18.397 1.0378 17.9487 0C14.3267 0.809536 10.862 2.23647 7.6254 4.19785C1.09717 16.9417 -0.672523 29.3691 0.212326 41.62C4.54219 45.797 8.73835 48.3344 12.8637 49.9949C13.8823 48.1839 14.7907 46.2589 15.5733 44.23C14.0828 43.4984 12.6553 42.5955 11.3064 41.5474C11.6643 41.2049 12.0143 40.8468 12.3525 40.4784C20.5796 45.4494 29.5185 45.4494 37.6474 40.4784C37.9895 40.8468 38.3395 41.2049 38.6934 41.5474C37.3406 42.6007 35.9091 43.5035 34.4187 44.2352C35.2012 46.2589 36.1058 48.1891 37.1282 50C41.2576 48.3396 45.4576 45.8022 49.7875 41.62C50.8257 27.4181 48.0139 15.1049 42.3548 4.18749ZM16.694 34.0858C14.2243 34.0858 12.199 31.1073 12.199 27.4803C12.199 23.8533 14.1811 20.8697 16.694 20.8697C19.207 20.8697 21.2323 23.8481 21.1891 27.4803C21.193 31.1073 19.207 34.0858 16.694 34.0858ZM28.8103 27.4803C28.8103 31.1073 30.8357 34.0858 33.3054 34.0858C35.8183 34.0858 37.8004 31.1073 37.8004 27.4803C37.8437 23.8481 35.8183 20.8697 33.3054 20.8697C30.7923 20.8697 28.8103 23.8533 28.8103 27.4803Z" fill="#5865F2"/>
</svg>
