<svg width="50" height="50" viewBox="0 0 50 50" fill="none" xmlns="http://www.w3.org/2000/svg">
<path fill-rule="evenodd" clip-rule="evenodd" d="M25.0001 0C18.2104 0 17.359 0.0287789 14.6925 0.150444C12.0316 0.271812 10.2142 0.694465 8.62405 1.31252C6.98008 1.95131 5.58589 2.80614 4.19597 4.19597C2.80614 5.58589 1.95131 6.98008 1.31252 8.62405C0.694465 10.2142 0.271812 12.0316 0.150444 14.6925C0.0287789 17.359 0 18.2104 0 25.0001C0 31.7896 0.0287789 32.6409 0.150444 35.3075C0.271812 37.9684 0.694465 39.7858 1.31252 41.3759C1.95131 43.0199 2.80614 44.4141 4.19597 45.804C5.58589 47.1939 6.98008 48.0487 8.62405 48.6876C10.2142 49.3055 12.0316 49.7282 14.6925 49.8496C17.359 49.9712 18.2104 50 25.0001 50C31.7896 50 32.6409 49.9712 35.3075 49.8496C37.9684 49.7282 39.7858 49.3055 41.3759 48.6876C43.0199 48.0487 44.4141 47.1939 45.804 45.804C47.1939 44.4141 48.0487 43.0199 48.6876 41.3759C49.3055 39.7858 49.7282 37.9684 49.8496 35.3075C49.9712 32.6409 50 31.7896 50 25.0001C50 18.2104 49.9712 17.359 49.8496 14.6925C49.7282 12.0316 49.3055 10.2142 48.6876 8.62405C48.0487 6.98008 47.1939 5.58589 45.804 4.19597C44.4141 2.80614 43.0199 1.95131 41.3759 1.31252C39.7858 0.694465 37.9684 0.271812 35.3075 0.150444C32.6409 0.0287789 31.7896 0 25.0001 0ZM25.0001 4.50448C31.6753 4.50448 32.466 4.52999 35.1022 4.65026C37.5396 4.76141 38.8634 5.16868 39.7443 5.51105C40.9112 5.96457 41.744 6.5063 42.6188 7.38118C43.4937 8.25596 44.0354 9.08877 44.489 10.2557C44.8313 11.1366 45.2386 12.4604 45.3497 14.8978C45.47 17.534 45.4955 18.3247 45.4955 25C45.4955 31.6753 45.47 32.466 45.3497 35.1021C45.2386 37.5396 44.8313 38.8633 44.489 39.7443C44.0354 40.9112 43.4937 41.744 42.6188 42.6188C41.744 43.4937 40.9112 44.0354 39.7443 44.4889C38.8634 44.8313 37.5396 45.2386 35.1022 45.3497C32.4664 45.47 31.6758 45.4955 25.0001 45.4955C18.3243 45.4955 17.5337 45.47 14.8979 45.3497C12.4604 45.2386 11.1367 44.8313 10.2557 44.4889C9.0888 44.0354 8.256 43.4937 7.38122 42.6188C6.50644 41.744 5.9646 40.9112 5.51108 39.7443C5.16871 38.8633 4.76144 37.5396 4.6503 35.1021C4.53002 32.466 4.50452 31.6753 4.50452 25C4.50452 18.3247 4.53002 17.534 4.6503 14.8978C4.76144 12.4604 5.16871 11.1366 5.51108 10.2557C5.9646 9.08877 6.50634 8.25596 7.38122 7.38118C8.256 6.5063 9.0888 5.96457 10.2557 5.51105C11.1367 5.16868 12.4604 4.76141 14.8979 4.65026C17.534 4.52999 18.3247 4.50448 25.0001 4.50448Z" fill="url(#paint0_linear_36_422)"/>
<path fill-rule="evenodd" clip-rule="evenodd" d="M25.0001 33.3333C20.3977 33.3333 16.6667 29.6024 16.6667 25C16.6667 20.3976 20.3977 16.6667 25.0001 16.6667C29.6025 16.6667 33.3334 20.3976 33.3334 25C33.3334 29.6024 29.6025 33.3333 25.0001 33.3333ZM25.0001 12.1622C17.9099 12.1622 12.1622 17.9098 12.1622 25C12.1622 32.0902 17.9099 37.8378 25.0001 37.8378C32.0902 37.8378 37.8379 32.0902 37.8379 25C37.8379 17.9098 32.0902 12.1622 25.0001 12.1622Z" fill="url(#paint1_linear_36_422)"/>
<path fill-rule="evenodd" clip-rule="evenodd" d="M41.345 11.655C41.345 13.3119 40.0018 14.655 38.3449 14.655C36.6882 14.655 35.345 13.3119 35.345 11.655C35.345 9.99815 36.6882 8.65497 38.3449 8.65497C40.0018 8.65497 41.345 9.99815 41.345 11.655Z" fill="url(#paint2_linear_36_422)"/>
<defs>
<linearGradient id="paint0_linear_36_422" x1="25" y1="75" x2="75" y2="25" gradientUnits="userSpaceOnUse">
<stop stop-color="#FFD522"/>
<stop offset="0.497382" stop-color="#F1000B"/>
<stop offset="1" stop-color="#B900B3"/>
</linearGradient>
<linearGradient id="paint1_linear_36_422" x1="25.0001" y1="50.6757" x2="50.6757" y2="25" gradientUnits="userSpaceOnUse">
<stop stop-color="#FFD522"/>
<stop offset="0.497382" stop-color="#F1000B"/>
<stop offset="1" stop-color="#B900B3"/>
</linearGradient>
<linearGradient id="paint2_linear_36_422" x1="38.345" y1="17.655" x2="44.345" y2="11.655" gradientUnits="userSpaceOnUse">
<stop stop-color="#FFD522"/>
<stop offset="0.497382" stop-color="#F1000B"/>
<stop offset="1" stop-color="#B900B3"/>
</linearGradient>
</defs>
</svg>
