<svg width="31" height="33" viewBox="0 0 31 33" fill="none" xmlns="http://www.w3.org/2000/svg">
<path d="M18.0952 16.4752C18.0952 14.9959 16.9333 13.7966 15.5 13.7966C14.0668 13.7966 12.9048 14.9959 12.9048 16.4752C12.9048 17.9545 14.0668 19.1538 15.5 19.1538C16.9333 19.1538 18.0952 17.9545 18.0952 16.4752Z" fill="#53C1DE"/>
<path fill-rule="evenodd" clip-rule="evenodd" d="M23.9285 11.5023C24.4766 9.20368 25.1654 4.94121 22.7369 3.4961C20.3198 2.05729 17.1744 4.81431 15.5135 6.46922C13.8574 4.83081 10.6236 2.08557 8.1972 3.53526C5.78102 4.9789 6.52612 9.1707 7.08631 11.4837C4.83243 12.1444 0.96875 13.5675 0.96875 16.4752C0.96875 19.3745 4.82841 20.9228 7.06895 21.5829C6.50668 23.9087 5.7989 28.0406 8.21817 29.481C10.6536 30.9305 13.8774 28.2506 15.5536 26.5776C17.2252 28.2422 20.3405 30.9396 22.758 29.4952C25.1833 28.0462 24.5516 23.8408 23.9914 21.5144C26.1633 20.8529 30.0312 19.3383 30.0312 16.4752C30.0312 13.5955 26.1469 12.1608 23.9285 11.5023ZM23.6532 20.2816C23.2854 19.0798 22.7889 17.8017 22.1816 16.4815C22.7613 15.1925 23.2384 13.931 23.596 12.7369C25.2223 13.2235 28.7898 14.3357 28.7898 16.4752C28.7898 18.6346 25.3664 19.7574 23.6532 20.2816ZM22.1359 28.3862C20.3322 29.4638 17.6527 26.8843 16.4182 25.6584C17.2371 24.7339 18.0556 23.6592 18.8543 22.4657C20.2593 22.3371 21.5867 22.1267 22.7904 21.8395C23.1847 23.4851 23.9477 27.3037 22.1359 28.3862ZM8.8385 28.3708C7.03451 27.2972 7.85906 23.6101 8.2727 21.8969C9.46308 22.1686 10.7808 22.3642 12.1892 22.4821C12.9932 23.6499 13.8353 24.7233 14.6839 25.6633C13.6354 26.7102 10.6509 29.4494 8.8385 28.3708ZM2.21019 16.4752C2.21019 14.3075 5.75638 13.2034 7.4197 12.718C7.78343 13.9389 8.26049 15.2155 8.83619 16.5063C8.25303 17.8165 7.76916 19.1133 7.40207 20.3486C5.81608 19.8801 2.21019 18.6441 2.21019 16.4752ZM8.81921 4.64428C10.6306 3.56211 13.4411 6.19763 14.6435 7.38388C13.7993 8.31965 12.9649 9.38499 12.1678 10.546C10.801 10.6768 9.49254 10.8868 8.28968 11.1681C7.8384 9.30261 7.00979 5.72528 8.81921 4.64428ZM19.7424 11.9389C20.6698 12.0597 21.5581 12.2203 22.3924 12.4169C22.1419 13.2454 21.8298 14.1118 21.4622 14.9999C20.9293 13.9562 20.3572 12.9335 19.7424 11.9389ZM15.5139 8.29961C16.0865 8.93987 16.66 9.65488 17.2242 10.4305C16.0798 10.3747 14.9336 10.3745 13.7892 10.4297C14.3539 9.66125 14.9323 8.94731 15.5139 8.29961ZM9.54849 14.9989C9.18694 14.1139 8.8776 13.2437 8.62499 12.4034C9.45421 12.2118 10.3385 12.0553 11.2598 11.9365C10.6433 12.9289 10.0722 13.9512 9.54849 14.9989ZM11.2863 21.1053C10.3345 20.9956 9.43685 20.8471 8.60789 20.6608C8.86449 19.8056 9.18063 18.9167 9.5499 18.0127C10.0808 19.0712 10.6606 20.1034 11.2863 21.1053ZM15.5482 24.7412C14.9598 24.0858 14.3729 23.361 13.7996 22.5814C14.9506 22.628 16.1037 22.6281 17.2544 22.5751C16.6885 23.369 16.117 24.0949 15.5482 24.7412ZM21.474 17.9666C21.8625 18.8805 22.1899 19.7646 22.45 20.6053C21.6073 20.8038 20.6975 20.9636 19.7389 21.0823C20.3583 20.0689 20.9394 19.0303 21.474 17.9666ZM18.1614 21.2376C16.4011 21.3675 14.6296 21.3661 12.8687 21.2483C11.868 19.7396 10.9773 18.1531 10.2084 16.5059C10.9736 14.8623 11.8578 13.2788 12.8538 11.7725C14.6161 11.635 16.3891 11.6347 18.1514 11.7733C19.1387 13.2795 20.0216 14.8589 20.8046 16.4878C20.0309 18.1307 19.142 19.7173 18.1614 21.2376ZM22.1169 4.60618C23.9287 5.6848 23.1222 9.51561 22.7264 11.1814C21.5207 10.8942 20.2114 10.6805 18.8405 10.5478C18.0419 9.3741 17.2145 8.30691 16.3839 7.38322C17.6017 6.17142 20.3225 3.5381 22.1169 4.60618Z" fill="#53C1DE"/>
</svg>
